<svg width="220" height="32" viewBox="0 0 220 32" fill="none" xmlns="http://www.w3.org/2000/svg">
<path d="M10.7468 2.17578C13.5039 2.17578 15.8242 3.12022 17.7078 5.00911C19.5914 6.898 20.5331 9.21745 20.5331 11.9674C20.5331 14.7174 19.5914 17.0369 17.7078 18.9258C15.8242 20.8147 13.5039 21.7591 10.7468 21.7591H5.71028V31.3424H0.0595703V2.17578H10.7468ZM10.7468 16.3841C11.9479 16.3841 12.9443 15.9674 13.7359 15.1341C14.5276 14.273 14.9234 13.2174 14.9234 11.9674C14.9234 10.6897 14.5276 9.63411 13.7359 8.80078C12.9443 7.96745 11.9479 7.55078 10.7468 7.55078H5.71028V16.3841H10.7468Z" fill="white"/>
<path d="M26.5869 8.00912C25.7134 8.00912 24.949 7.68967 24.2939 7.05078C23.666 6.38411 23.3521 5.60634 23.3521 4.71745C23.3521 3.82856 23.666 3.05078 24.2939 2.38411C24.949 1.71745 25.7134 1.38411 26.5869 1.38411C27.4878 1.38411 28.2521 1.71745 28.88 2.38411C29.5351 3.05078 29.8627 3.82856 29.8627 4.71745C29.8627 5.60634 29.5351 6.38411 28.88 7.05078C28.2521 7.68967 27.4878 8.00912 26.5869 8.00912ZM23.9663 31.3424V10.5091H29.2485V31.3424H23.9663Z" fill="white"/>
<path d="M52.9598 31.3424H46.8586L42.4363 25.0091L37.9731 31.3424H31.872L39.3653 20.7174L32.1996 10.5091H38.3007L42.4363 16.3841L46.572 10.5091H52.6322L45.4664 20.6758L52.9598 31.3424Z" fill="white"/>
<path d="M58.6201 23.1341C59.3298 25.7452 61.2543 27.0508 64.3936 27.0508C66.4137 27.0508 67.9423 26.3563 68.9797 24.9674L73.2382 27.4674C71.2181 30.4397 68.2426 31.9258 64.3117 31.9258C60.9267 31.9258 58.2106 30.8841 56.1632 28.8008C54.1159 26.7174 53.0922 24.0924 53.0922 20.9258C53.0922 17.7869 54.1022 15.1758 56.1223 13.0924C58.1423 10.9813 60.7357 9.92578 63.9022 9.92578C66.905 9.92578 69.3755 10.9813 71.3137 13.0924C73.2791 15.2036 74.2619 17.8147 74.2619 20.9258C74.2619 21.6202 74.1936 22.3563 74.0571 23.1341H58.6201ZM58.5382 18.9674H68.9797C68.6794 17.5508 68.0515 16.4952 67.0961 15.8008C66.168 15.1063 65.1033 14.7591 63.9022 14.7591C62.4827 14.7591 61.3089 15.1341 60.3808 15.8841C59.4526 16.6063 58.8384 17.6341 58.5382 18.9674Z" fill="white"/>
<path d="M77.9493 31.3424V0.925781H83.2315V31.3424H77.9493Z" fill="white"/>
<path d="M98.9991 2.17578C101.756 2.17578 104.076 3.12022 105.96 5.00911C107.844 6.898 108.785 9.21745 108.785 11.9674C108.785 14.7174 107.844 17.0369 105.96 18.9258C104.076 20.8147 101.756 21.7591 98.9991 21.7591H93.9625V31.3424H88.3118V2.17578H98.9991ZM98.9991 16.3841C100.2 16.3841 101.197 15.9674 101.988 15.1341C102.78 14.273 103.176 13.2174 103.176 11.9674C103.176 10.6897 102.78 9.63411 101.988 8.80078C101.197 7.96745 100.2 7.55078 98.9991 7.55078H93.9625V16.3841H98.9991Z" fill="white"/>
<path d="M115.322 23.1341C116.032 25.7452 117.957 27.0508 121.096 27.0508C123.116 27.0508 124.645 26.3563 125.682 24.9674L129.94 27.4674C127.92 30.4397 124.945 31.9258 121.014 31.9258C117.629 31.9258 114.913 30.8841 112.865 28.8008C110.818 26.7174 109.794 24.0924 109.794 20.9258C109.794 17.7869 110.804 15.1758 112.824 13.0924C114.845 10.9813 117.438 9.92578 120.604 9.92578C123.607 9.92578 126.078 10.9813 128.016 13.0924C129.981 15.2036 130.964 17.8147 130.964 20.9258C130.964 21.6202 130.896 22.3563 130.759 23.1341H115.322ZM115.24 18.9674H125.682C125.382 17.5508 124.754 16.4952 123.798 15.8008C122.87 15.1063 121.806 14.7591 120.604 14.7591C119.185 14.7591 118.011 15.1341 117.083 15.8841C116.155 16.6063 115.541 17.6341 115.24 18.9674Z" fill="white"/>
<path d="M139.934 14.0924C140.425 12.7591 141.23 11.7591 142.35 11.0924C143.496 10.4258 144.765 10.0924 146.158 10.0924V16.0924C144.547 15.898 143.1 16.2313 141.817 17.0924C140.562 17.9536 139.934 19.3841 139.934 21.3841V31.3424H134.652V10.5091H139.934V14.0924Z" fill="white"/>
<path d="M160.262 6.75911C157.368 6.53689 155.921 7.71745 155.921 10.3008V10.5091H160.262V15.6758H155.921V31.3424H150.639V15.6758H147.691V10.5091H150.639V10.3008C150.639 7.35634 151.444 5.12023 153.055 3.59245C154.666 2.06467 157.068 1.398 160.262 1.59245V6.75911Z" fill="white"/>
<path d="M166.386 23.1341C167.096 25.7452 169.02 27.0508 172.16 27.0508C174.18 27.0508 175.709 26.3563 176.746 24.9674L181.004 27.4674C178.984 30.4397 176.009 31.9258 172.078 31.9258C168.693 31.9258 165.977 30.8841 163.929 28.8008C161.882 26.7174 160.858 24.0924 160.858 20.9258C160.858 17.7869 161.868 15.1758 163.888 13.0924C165.908 10.9813 168.502 9.92578 171.668 9.92578C174.671 9.92578 177.142 10.9813 179.08 13.0924C181.045 15.2036 182.028 17.8147 182.028 20.9258C182.028 21.6202 181.96 22.3563 181.823 23.1341H166.386ZM166.304 18.9674H176.746C176.446 17.5508 175.818 16.4952 174.862 15.8008C173.934 15.1063 172.869 14.7591 171.668 14.7591C170.249 14.7591 169.075 15.1341 168.147 15.8841C167.219 16.6063 166.605 17.6341 166.304 18.9674Z" fill="white"/>
<path d="M195.301 31.9258C192.216 31.9258 189.637 30.8702 187.562 28.7591C185.515 26.648 184.491 24.0369 184.491 20.9258C184.491 17.8147 185.515 15.2036 187.562 13.0924C189.637 10.9813 192.216 9.92578 195.301 9.92578C197.294 9.92578 199.109 10.4119 200.747 11.3841C202.385 12.3563 203.627 13.6619 204.473 15.3008L199.928 18.0091C199.519 17.148 198.891 16.4674 198.044 15.9674C197.225 15.4674 196.297 15.2174 195.26 15.2174C193.677 15.2174 192.366 15.7591 191.329 16.8424C190.292 17.898 189.773 19.2591 189.773 20.9258C189.773 22.5647 190.292 23.9258 191.329 25.0091C192.366 26.0647 193.677 26.5924 195.26 26.5924C196.325 26.5924 197.266 26.3563 198.085 25.8841C198.932 25.3841 199.559 24.7036 199.969 23.8424L204.555 26.5091C203.654 28.148 202.385 29.4674 200.747 30.4674C199.109 31.4397 197.294 31.9258 195.301 31.9258Z" fill="white"/>
<path d="M219.06 15.6758H214.433V24.3424C214.433 25.0647 214.61 25.5924 214.965 25.9258C215.32 26.2591 215.838 26.4536 216.521 26.5091C217.203 26.5369 218.05 26.523 219.06 26.4674V31.3424C215.429 31.7591 212.863 31.4119 211.362 30.3008C209.887 29.1897 209.15 27.2036 209.15 24.3424V15.6758H205.588V10.5091H209.15V6.30078L214.433 4.67578V10.5091H219.06V15.6758Z" fill="white"/>
</svg>
