<svg width="746" height="780" viewBox="0 0 746 780" fill="none" xmlns="http://www.w3.org/2000/svg">
<path d="M745.263 13.3287V66.585C745.263 73.9043 739.31 79.8581 731.936 79.8581H665.406V13.3287C665.406 6.00938 671.36 0.000976562 678.734 0.000976562H731.936C739.31 0.000976562 745.263 6.00938 745.263 13.3287Z" fill="white"/>
<path d="M119.788 79.9671H665.405V660.324C665.405 682.282 647.489 700.253 625.531 700.253H79.8591V766.727C79.8591 774.047 73.9053 780.001 66.5314 780.001H13.3297C5.95573 780.001 0.00195312 774.047 0.00195312 766.727V713.471C0.00195312 706.152 5.95573 700.198 13.3297 700.198H79.8591V119.841C79.8591 97.7738 97.7204 79.9671 119.788 79.9671Z" fill="white"/>
</svg>
