<svg width="2015" height="387" viewBox="0 0 2015 387" fill="none" xmlns="http://www.w3.org/2000/svg">
<path d="M104.32 79C125.867 79 144 86.2533 158.72 100.76C173.44 115.267 180.8 133.08 180.8 154.2C180.8 175.32 173.44 193.133 158.72 207.64C144 222.147 125.867 229.4 104.32 229.4H64.9601V303H20.8001V79H104.32ZM104.32 188.12C113.707 188.12 121.493 184.92 127.68 178.52C133.867 171.907 136.96 163.8 136.96 154.2C136.96 144.387 133.867 136.28 127.68 129.88C121.493 123.48 113.707 120.28 104.32 120.28H64.9601V188.12H104.32ZM228.11 123.8C221.283 123.8 215.31 121.347 210.19 116.44C205.283 111.32 202.83 105.347 202.83 98.52C202.83 91.6933 205.283 85.72 210.19 80.6C215.31 75.48 221.283 72.92 228.11 72.92C235.15 72.92 241.123 75.48 246.03 80.6C251.15 85.72 253.71 91.6933 253.71 98.52C253.71 105.347 251.15 111.32 246.03 116.44C241.123 121.347 235.15 123.8 228.11 123.8ZM207.63 303V143H248.91V303H207.63ZM434.213 303H386.533L351.973 254.36L317.093 303H269.413L327.973 221.4L271.973 143H319.653L351.973 188.12L384.293 143H431.653L375.653 221.08L434.213 303ZM478.448 239.96C483.994 260.013 499.034 270.04 523.568 270.04C539.354 270.04 551.301 264.707 559.408 254.04L592.688 273.24C576.901 296.067 553.648 307.48 522.928 307.48C496.474 307.48 475.248 299.48 459.248 283.48C443.248 267.48 435.248 247.32 435.248 223C435.248 198.893 443.141 178.84 458.928 162.84C474.714 146.627 494.981 138.52 519.728 138.52C543.194 138.52 562.501 146.627 577.648 162.84C593.008 179.053 600.688 199.107 600.688 223C600.688 228.333 600.154 233.987 599.088 239.96H478.448ZM477.808 207.96H559.408C557.061 197.08 552.154 188.973 544.688 183.64C537.434 178.307 529.114 175.64 519.728 175.64C508.634 175.64 499.461 178.52 492.208 184.28C484.954 189.827 480.154 197.72 477.808 207.96ZM629.505 303V69.4H670.785V303H629.505ZM794.007 79C815.554 79 833.687 86.2533 848.407 100.76C863.127 115.267 870.487 133.08 870.487 154.2C870.487 175.32 863.127 193.133 848.407 207.64C833.687 222.147 815.554 229.4 794.007 229.4H754.647V303H710.487V79H794.007ZM794.007 188.12C803.394 188.12 811.181 184.92 817.367 178.52C823.554 171.907 826.647 163.8 826.647 154.2C826.647 144.387 823.554 136.28 817.367 129.88C811.181 123.48 803.394 120.28 794.007 120.28H754.647V188.12H794.007ZM921.572 239.96C927.119 260.013 942.159 270.04 966.692 270.04C982.479 270.04 994.426 264.707 1002.53 254.04L1035.81 273.24C1020.03 296.067 996.772 307.48 966.052 307.48C939.599 307.48 918.372 299.48 902.372 283.48C886.372 267.48 878.372 247.32 878.372 223C878.372 198.893 886.266 178.84 902.052 162.84C917.839 146.627 938.106 138.52 962.852 138.52C986.319 138.52 1005.63 146.627 1020.77 162.84C1036.13 179.053 1043.81 199.107 1043.81 223C1043.81 228.333 1043.28 233.987 1042.21 239.96H921.572ZM920.932 207.96H1002.53C1000.19 197.08 995.279 188.973 987.812 183.64C980.559 178.307 972.239 175.64 962.852 175.64C951.759 175.64 942.586 178.52 935.332 184.28C928.079 189.827 923.279 197.72 920.932 207.96ZM1113.91 170.52C1117.75 160.28 1124.04 152.6 1132.79 147.48C1141.75 142.36 1151.67 139.8 1162.55 139.8V185.88C1149.96 184.387 1138.66 186.947 1128.63 193.56C1118.82 200.173 1113.91 211.16 1113.91 226.52V303H1072.63V143H1113.91V170.52ZM1272.77 114.2C1250.16 112.493 1238.85 121.56 1238.85 141.4V143H1272.77V182.68H1238.85V303H1197.57V182.68H1174.53V143H1197.57V141.4C1197.57 118.787 1203.87 101.613 1216.45 89.88C1229.04 78.1467 1247.81 73.0267 1272.77 74.52V114.2ZM1320.63 239.96C1326.18 260.013 1341.22 270.04 1365.75 270.04C1381.54 270.04 1393.49 264.707 1401.59 254.04L1434.87 273.24C1419.09 296.067 1395.83 307.48 1365.11 307.48C1338.66 307.48 1317.43 299.48 1301.43 283.48C1285.43 267.48 1277.43 247.32 1277.43 223C1277.43 198.893 1285.33 178.84 1301.11 162.84C1316.9 146.627 1337.17 138.52 1361.91 138.52C1385.38 138.52 1404.69 146.627 1419.83 162.84C1435.19 179.053 1442.87 199.107 1442.87 223C1442.87 228.333 1442.34 233.987 1441.27 239.96H1320.63ZM1319.99 207.96H1401.59C1399.25 197.08 1394.34 188.973 1386.87 183.64C1379.62 178.307 1371.3 175.64 1361.91 175.64C1350.82 175.64 1341.65 178.52 1334.39 184.28C1327.14 189.827 1322.34 197.72 1319.99 207.96ZM1546.6 307.48C1522.5 307.48 1502.34 299.373 1486.12 283.16C1470.12 266.947 1462.12 246.893 1462.12 223C1462.12 199.107 1470.12 179.053 1486.12 162.84C1502.34 146.627 1522.5 138.52 1546.6 138.52C1562.18 138.52 1576.36 142.253 1589.16 149.72C1601.96 157.187 1611.67 167.213 1618.28 179.8L1582.76 200.6C1579.56 193.987 1574.66 188.76 1568.04 184.92C1561.64 181.08 1554.39 179.16 1546.28 179.16C1533.91 179.16 1523.67 183.32 1515.56 191.64C1507.46 199.747 1503.4 210.2 1503.4 223C1503.4 235.587 1507.46 246.04 1515.56 254.36C1523.67 262.467 1533.91 266.52 1546.28 266.52C1554.6 266.52 1561.96 264.707 1568.36 261.08C1574.98 257.24 1579.88 252.013 1583.08 245.4L1618.92 265.88C1611.88 278.467 1601.96 288.6 1589.16 296.28C1576.36 303.747 1562.18 307.48 1546.6 307.48ZM1732.27 182.68H1696.11V249.24C1696.11 254.787 1697.5 258.84 1700.27 261.4C1703.05 263.96 1707.1 265.453 1712.43 265.88C1717.77 266.093 1724.38 265.987 1732.27 265.56V303C1703.9 306.2 1683.85 303.533 1672.11 295C1660.59 286.467 1654.83 271.213 1654.83 249.24V182.68H1626.99V143H1654.83V110.68L1696.11 98.2V143H1732.27V182.68Z" fill="#F8F9FA"/>
<path d="M2015 4.10084V20.4874C2015 22.7395 2013.16 24.5714 2010.89 24.5714H1990.36V4.10084C1990.36 1.84874 1992.19 0 1994.47 0H2010.89C2013.16 0 2015 1.84874 2015 4.10084Z" fill="#F8F9FA"/>
<path d="M1821.97 24.6049H1990.35V203.176C1990.35 209.933 1984.83 215.462 1978.05 215.462H1809.65V235.916C1809.65 238.168 1807.81 240 1805.53 240H1789.11C1786.84 240 1785 238.168 1785 235.916V219.529C1785 217.277 1786.84 215.445 1789.11 215.445H1809.65V36.8738C1809.65 30.0839 1815.16 24.6049 1821.97 24.6049Z" fill="#F8F9FA"/>
</svg>
